PathFileType	4	(X/Y/Z)	C:/Users/rsk02/Documents/GitHub/TechForParalysis/Code/Model/04122019 - Marker Volunteer01/Rosti Data/New Session 109.trc	
DataRate	CameraRate	NumFrames	NumMarkers	Units	OrigDataRate	OrigDataStartFrame	OrigNumFrames	
100.00	100.00	20	14	mm	100.00	286	1141	
Frame#	Time	C7			PX			T8			IJ			SC			AC			AI			TS			AA			GH			LE			ME			US			RS			
		X1	Y1	Z1	X2	Y2	Z2	X3	Y3	Z3	X4	Y4	Z4	X5	Y5	Z5	X6	Y6	Z6	X7	Y7	Z7	X8	Y8	Z8	X9	Y9	Z9	X10	Y10	Z10	X11	Y11	Z11	X12	Y12	Z12	X13	Y13	Z13	X14	Y14	Z14	

286	2.850	676.43536	-23.42524	1543.39270	458.19574	-33.38178	1282.80554	758.21460	-16.08923	1331.50586	516.57416	-36.02060	1428.23828	520.23212	-11.23942	1437.96155	599.94031	119.02512	1507.44836	723.86035	51.03111	1473.82983	754.15161	59.34776	1351.62207	683.35077	159.28099	1478.62207	644.83105	173.85764	1490.52795	725.84326	299.56808	1258.75305	741.21960	220.71101	1192.03540	497.06778	204.17334	1286.91772	519.24347	184.96193	1364.36096 
287	2.860	676.34161	-23.52568	1543.37451	458.13086	-33.42162	1282.81079	758.13403	-16.13689	1331.49231	516.53027	-36.16799	1428.24597	520.16705	-11.32218	1437.98071	599.91455	118.92686	1507.46143	723.81403	50.95345	1473.80298	754.08234	59.31287	1351.59436	683.28723	159.21782	1478.58923	644.77289	173.77577	1490.48975	725.28510	299.35281	1258.34692	740.74188	220.39619	1191.75903	496.58063	203.57332	1286.63525	518.79108	184.51683	1364.09729 
288	2.870	676.26276	-23.62565	1543.35266	458.06934	-33.46550	1282.82410	758.05072	-16.16868	1331.47510	516.48047	-36.29639	1428.26379	520.10077	-11.42011	1438.00513	599.87537	118.82619	1507.47559	723.79584	50.89308	1473.78125	753.99835	59.30084	1351.55383	683.21497	159.15477	1478.56934	644.70514	173.69994	1490.45654	724.68433	299.13980	1257.97339	740.19318	220.14395	1191.46411	496.02756	203.03183	1286.33606	518.26813	184.20068	1363.84766 
289	2.880	676.20306	-23.72187	1543.32764	458.00958	-33.51973	1282.84229	757.96661	-16.18879	1331.45422	516.42725	-36.39718	1428.28601	520.02271	-11.53120	1438.02563	599.80829	118.72913	1507.48987	723.80884	50.84816	1473.76746	753.89960	59.30969	1351.50110	683.14160	159.10355	1478.54236	644.62189	173.64166	1490.41357	724.01282	298.94690	1257.60571	739.55750	219.96414	1191.13477	495.40683	202.57916	1286.02234	517.66852	183.94785	1363.57861 
290	2.890	676.15942	-23.81001	1543.29956	457.94971	-33.58906	1282.86255	757.88251	-16.20385	1331.43079	516.37805	-36.46737	1428.30762	519.93634	-11.65383	1438.03967	599.70996	118.64533	1507.51990	723.81531	50.81505	1473.74243	753.78796	59.33500	1351.44031	683.06494	159.06720	1478.50427	644.51849	173.60327	1490.35168	723.22858	298.83105	1257.18921	738.82361	219.86819	1190.76025	494.70471	202.19312	1285.68762	516.98798	183.68800	1363.26331 
291	2.900	676.12012	-23.88892	1543.27002	457.88828	-33.67637	1282.88306	757.79883	-16.22038	1331.40735	516.33606	-36.51974	1428.31873	519.85919	-11.78513	1438.04199	599.58643	118.57695	1507.55640	723.78113	50.79406	1473.69189	753.66327	59.36958	1351.37781	682.97644	159.04289	1478.47046	644.39581	173.58441	1490.27502	722.30237	298.85739	1256.67688	737.98035	219.86884	1190.33606	493.89340	201.85298	1285.32043	516.21790	183.38243	1362.88965 
292	2.910	676.07257	-23.95944	1543.24231	457.82584	-33.78215	1282.90405	757.71649	-16.24197	1331.38684	516.29596	-36.57328	1428.31311	519.79816	-11.90849	1438.03247	599.45392	118.51848	1507.54797	723.73700	50.79814	1473.64038	753.52533	59.40898	1351.31946	682.87518	159.03235	1478.45789	644.26056	173.58501	1490.19397	721.21545	299.02411	1256.06250	737.00726	219.96733	1189.85815	492.93546	201.56271	1284.90906	515.33435	183.01593	1362.44531 
293	2.920	676.00812	-24.02465	1543.21936	457.76697	-33.90364	1282.92590	757.63751	-16.26910	1331.37036	516.24988	-36.64093	1428.29309	519.73975	-12.00659	1438.01965	599.32147	118.46698	1507.48120	723.63977	50.80365	1473.56372	753.37866	59.45506	1351.27051	682.77380	159.04160	1478.45923	644.11853	173.60901	1490.11243	719.94250	299.28146	1255.36841	735.86493	220.15858	1189.31250	491.79355	201.32300	1284.44019	514.30029	182.59915	1361.91577 
294	2.930	675.92767	-24.09050	1543.20471	457.72125	-34.03473	1282.94922	757.56451	-16.30048	1331.35706	516.19550	-36.73031	1428.26282	519.67810	-12.11054	1438.00781	599.18817	118.41608	1507.38354	723.42889	50.78123	1473.41895	753.23279	59.51433	1351.23413	682.68146	159.07233	1478.44702	643.97351	173.66324	1490.03003	718.44666	299.59998	1254.60669	734.50323	220.44440	1188.67603	490.44073	201.09818	1283.90601	513.07941	182.18582	1361.30505 
295	2.940	675.84613	-24.15946	1543.19739	457.70325	-34.16695	1282.97363	757.50055	-16.33392	1331.34485	516.14209	-36.84838	1428.22339	519.63031	-12.25889	1437.98877	599.05847	118.36034	1507.28406	723.10449	50.72311	1473.19275	753.09949	59.59206	1351.20923	682.59155	159.11365	1478.38586	643.83423	173.74908	1489.94360	716.69202	299.97467	1253.77063	732.87256	220.83635	1187.92322	488.85150	200.85071	1283.30469	511.63898	181.84070	1360.63391 
296	2.950	675.78723	-24.22586	1543.18835	457.73050	-34.29116	1282.99707	757.44806	-16.36729	1331.33093	516.11084	-37.00232	1428.17566	519.60889	-12.42835	1437.95654	598.94562	118.29219	1507.19226	722.74683	50.64885	1472.93018	752.98492	59.68869	1351.19250	682.48950	159.15462	1478.25024	643.70929	173.85281	1489.84741	714.64972	300.41632	1252.84961	730.92847	221.34215	1187.03613	486.98511	200.58784	1282.63049	509.93948	181.54355	1359.89783 
297	2.960	675.77069	-24.28727	1543.17175	457.81860	-34.40000	1283.01636	757.40796	-16.40120	1331.31287	516.12585	-37.19751	1428.12939	519.61652	-12.58840	1437.91431	598.86072	118.21437	1507.10498	722.47577	50.59810	1472.71179	752.89252	59.79815	1351.18494	682.37421	159.20363	1478.04822	643.58990	173.94664	1489.73291	712.28815	300.93298	1251.82910	728.64069	221.94792	1186.01379	484.79279	200.34856	1281.86621	507.93372	181.20001	1359.05518 
298	2.970	675.79712	-24.35991	1543.14990	457.97327	-34.49092	1283.02771	757.38049	-16.43951	1331.28967	516.19940	-37.43565	1428.10803	519.65674	-12.73519	1437.86731	598.80511	118.13705	1507.01758	722.32129	50.58453	1472.56604	752.82190	59.91034	1351.19287	682.24951	159.26271	1477.79761	643.45135	174.00583	1489.58936	709.57233	301.51050	1250.69690	725.99164	222.62852	1184.87061	482.23462	200.17311	1281.00012	505.58392	180.73662	1358.06531 
299	2.980	675.84521	-24.47055	1543.12903	458.18222	-34.56827	1283.02991	757.36658	-16.48714	1331.26306	516.32269	-37.71161	1428.13538	519.73688	-12.88818	1437.81921	598.76135	118.06473	1506.93176	722.24390	50.59311	1472.48328	752.76978	60.01702	1351.22546	682.10748	159.32399	1477.51294	643.27716	174.04338	1489.41541	706.47388	302.12012	1249.45435	722.97156	223.36295	1183.62866	479.28757	200.08029	1280.05676	502.86426	180.10133	1356.91443 
300	2.990	675.89301	-24.62151	1543.11279	458.41553	-34.64254	1283.02551	757.36798	-16.54573	1331.23547	516.46912	-38.01498	1428.21387	519.86377	-13.10073	1437.76636	598.69775	117.98618	1506.85339	722.21051	50.61509	1472.45898	752.72729	60.11382	1351.28711	681.92963	159.39645	1477.20813	643.05310	174.10551	1489.22131	702.97968	302.75568	1248.11926	719.56909	224.14543	1182.30408	475.94080	200.08044	1279.08630	499.75958	179.26682	1355.62622 
301	3.000	675.94135	-24.78604	1543.09937	458.63898	-34.72599	1283.02087	757.38672	-16.61131	1331.20898	516.60681	-38.33004	1428.32471	520.04498	-13.42071	1437.70117	598.59076	117.88777	1506.78174	722.20197	50.65730	1472.48193	752.67242	60.20221	1351.37024	681.69489	159.51938	1476.89209	642.75574	174.23422	1489.01843	699.08386	303.41956	1246.71643	715.76270	224.98151	1180.90039	472.18231	200.17465	1278.12683	496.26526	178.26987	1354.24792 
302	3.010	676.01147	-24.93998	1543.08459	458.82394	-34.82849	1283.02441	757.42535	-16.67707	1331.18530	516.70874	-38.62299	1428.42651	520.26953	-13.82605	1437.63416	598.44556	117.76991	1506.70959	722.17010	50.72013	1472.50989	752.57611	60.29652	1351.45349	681.38196	159.73523	1476.56421	642.36945	174.42294	1488.80872	694.78290	304.09967	1245.26855	711.53693	225.86473	1179.42285	467.99701	200.35774	1277.18555	492.38397	177.21236	1352.82422 
303	3.020	676.12195	-25.08333	1543.06714	458.95190	-34.95431	1283.04321	757.48724	-16.73754	1331.16589	516.76575	-38.85491	1428.47937	520.48492	-14.19319	1437.59888	598.28503	117.64038	1506.63892	722.08630	50.79475	1472.51453	752.42053	60.42429	1351.51294	680.97583	160.03891	1476.21106	641.89539	174.64235	1488.58972	690.07782	304.77679	1243.79248	706.89429	226.77699	1177.88696	463.37845	200.59395	1276.23535	488.11115	176.17294	1351.37085 
304	3.030	676.26788	-25.22164	1543.04517	459.01682	-35.10115	1283.07947	757.57373	-16.78997	1331.15125	516.79254	-39.03099	1428.49194	520.64258	-14.41543	1437.60645	598.12946	117.49738	1506.57056	722.02539	50.90108	1472.53406	752.22308	60.60230	1351.54468	680.48328	160.38371	1475.82129	641.35284	174.86322	1488.36816	684.97980	305.43567	1242.31152	701.84912	227.69725	1176.31873	458.33813	200.81520	1275.24561	483.42508	175.18784	1349.89172 
305	3.040	676.43884	-25.36417	1543.02161	459.02768	-35.26048	1283.12708	757.68042	-16.83609	1331.14148	516.81116	-39.18142	1428.49561	520.76349	-14.54508	1437.64197	597.98096	117.33349	1506.50842	721.99402	51.02314	1472.57092	752.05133	60.80969	1351.57837	679.93372	160.73041	1475.40381	640.75977	175.06654	1488.15649	679.51239	306.06790	1240.86804	696.41052	228.61064	1174.75159	452.90131	200.96896	1274.21021	478.30356	174.27536	1348.39917 
